<svg width="36" height="36" viewBox="0 0 36 36" fill="none" xmlns="http://www.w3.org/2000/svg">
<path d="M18 11.6935C14.517 11.6935 11.6935 14.517 11.6935 18C11.6935 21.483 14.517 24.3065 18 24.3065C21.483 24.3065 24.3065 21.483 24.3065 18C24.3065 14.517 21.483 11.6935 18 11.6935Z" fill="#151515"/>
<path fill-rule="evenodd" clip-rule="evenodd" d="M1 17.4516C1 10.5973 1 7.17009 2.74554 4.76755C3.30928 3.99164 3.99164 3.30928 4.76755 2.74554C7.17009 1 10.5973 1 17.4516 1H18.5484C25.4027 1 28.8299 1 31.2324 2.74554C32.0084 3.30928 32.6907 3.99164 33.2545 4.76755C35 7.17009 35 10.5973 35 17.4516V18.5484C35 25.4027 35 28.8299 33.2545 31.2324C32.6907 32.0084 32.0084 32.6907 31.2324 33.2545C28.8299 35 25.4027 35 18.5484 35H17.4516C10.5973 35 7.17009 35 4.76755 33.2545C3.99164 32.6907 3.30928 32.0084 2.74554 31.2324C1 28.8299 1 25.4027 1 18.5484V17.4516ZM8.58602 18C8.58602 12.8008 12.8008 8.58602 18 8.58602C23.1992 8.58602 27.414 12.8008 27.414 18C27.414 23.1992 23.1992 27.414 18 27.414C12.8008 27.414 8.58602 23.1992 8.58602 18ZM27.9852 5.93548C26.8116 5.93548 25.8602 6.88688 25.8602 8.06048C25.8602 9.23409 26.8116 10.1855 27.9852 10.1855C29.1588 10.1855 30.1102 9.23409 30.1102 8.06048C30.1102 6.88688 29.1588 5.93548 27.9852 5.93548Z" fill="#151515"/>
</svg>
