<svg width="16" height="17" viewBox="0 0 16 17" fill="none" xmlns="http://www.w3.org/2000/svg">
<path d="M8 16.5C12.4183 16.5 16 12.9183 16 8.5C16 4.08172 12.4183 0.5 8 0.5C3.58172 0.5 0 4.08172 0 8.5C0 12.9183 3.58172 16.5 8 16.5Z" fill="url(#paint0_linear_4_1364)"/>
<path fill-rule="evenodd" clip-rule="evenodd" d="M3.62069 8.41205C5.95285 7.39597 7.50799 6.7261 8.28611 6.40245C10.5078 5.47838 10.9694 5.31786 11.2703 5.31256C11.3365 5.31139 11.4845 5.32779 11.5803 5.40557C11.6613 5.47124 11.6835 5.55995 11.6942 5.62222C11.7049 5.68448 11.7181 5.82632 11.7076 5.93715C11.5872 7.20214 11.0662 10.2719 10.8012 11.6887C10.6891 12.2882 10.4683 12.4893 10.2545 12.5089C9.78991 12.5517 9.43713 12.2019 8.98717 11.907C8.28307 11.4454 7.88529 11.1581 7.20184 10.7077C6.41199 10.1872 6.92402 9.90112 7.37415 9.4336C7.49195 9.31124 9.53888 7.4494 9.5785 7.28051C9.58345 7.25938 9.58805 7.18064 9.54127 7.13907C9.4945 7.09749 9.42546 7.11171 9.37564 7.12301C9.30502 7.13904 8.1802 7.8825 6.00119 9.3534C5.68192 9.57264 5.39273 9.67946 5.13362 9.67386C4.84798 9.66769 4.29852 9.51235 3.89006 9.37958C3.38905 9.21672 2.99087 9.13062 3.02554 8.85404C3.0436 8.70998 3.24199 8.56265 3.62069 8.41205Z" fill="#151515"/>
<defs>
<linearGradient id="paint0_linear_4_1364" x1="8" y1="0.5" x2="8" y2="16.3813" gradientUnits="userSpaceOnUse">
<stop offset="1" stop-color="white"/>
</linearGradient>
</defs>
</svg>
