<svg width="16" height="17" viewBox="0 0 16 17" fill="none" xmlns="http://www.w3.org/2000/svg">
<path fill-rule="evenodd" clip-rule="evenodd" d="M8.28424 0.511485C11.8619 0.528292 13.4682 1.69522 13.8668 2.06019C15.185 3.20551 15.9173 5.74587 15.4251 9.75809C14.9921 13.3031 12.5194 13.932 11.6899 14.143C11.6086 14.1637 11.5432 14.1803 11.4969 14.1953C11.2736 14.2673 9.2975 14.762 6.73073 14.5459C6.4474 14.8748 6.07043 15.307 5.79911 15.5999C5.71714 15.6883 5.64039 15.7754 5.56706 15.8588C5.1957 16.2807 4.9116 16.6035 4.47851 16.4691C4.04871 16.3371 4.07272 15.684 4.07272 15.684L4.07513 14.0729H4.07272C0.317416 13.0164 0.372641 9.1242 0.415861 7.04486C0.456679 4.96551 0.860063 3.28955 2.00538 2.14423C4.06312 0.256969 8.28424 0.511485 8.28424 0.511485Z" fill="white"/>
<path d="M11.2616 13.0236C11.9666 12.86 13.9355 12.4031 14.2991 9.47283C14.7145 6.1209 14.1454 3.83266 13.0313 2.87462C12.6952 2.56969 11.2449 1.65967 8.21712 1.64527C8.21712 1.64527 4.63229 1.40996 2.8915 2.98507C1.92386 3.94071 1.59731 5.36216 1.5613 7.09815L1.55737 7.27498C1.51674 9.05028 1.44512 12.1791 4.51464 13.0312C4.51464 13.0312 4.50264 15.4924 4.50023 15.7085C4.50023 15.8597 4.52425 15.963 4.61068 15.9846C4.67311 16.0014 4.76676 15.9678 4.84599 15.8885C5.35262 15.3771 6.97816 13.4178 6.97816 13.4178C9.15835 13.5619 10.8919 13.1297 11.0792 13.0697C11.1223 13.0559 11.1844 13.0415 11.2616 13.0236Z" fill="#151515"/>
<path d="M9.9606 6.94772C9.966 7.05936 9.87988 7.15423 9.76824 7.15963C9.65661 7.16502 9.56174 7.0789 9.55634 6.96727C9.52291 6.27567 9.20164 5.94389 8.53759 5.90861C8.42598 5.90268 8.34031 5.8074 8.34624 5.69579C8.35217 5.58418 8.44745 5.49852 8.55906 5.50444C9.43293 5.55087 9.91726 6.05106 9.9606 6.94772Z" fill="white"/>
<path d="M10.7911 7.50797C10.9029 7.51051 10.9955 7.42199 10.9981 7.31025C11.016 6.51926 10.7791 5.85142 10.2869 5.31517C9.79384 4.77796 9.11375 4.4805 8.25292 4.41937C8.14143 4.41146 8.04464 4.49542 8.03673 4.6069C8.02881 4.71838 8.11277 4.81517 8.22425 4.82309C8.98676 4.87723 9.56956 5.13214 9.98876 5.58885C10.4083 6.04597 10.6091 6.61194 10.5934 7.30106C10.5909 7.41279 10.6794 7.50543 10.7911 7.50797Z" fill="white"/>
<path d="M12.0618 7.71953C12.0626 7.83129 11.9727 7.92257 11.8609 7.9234C11.7492 7.92424 11.6579 7.83432 11.6571 7.72256C11.6479 6.49107 11.2844 5.53381 10.5681 4.83339C9.84922 4.1328 8.95565 3.77878 7.88193 3.77192C7.77017 3.7712 7.68014 3.68002 7.68086 3.56826C7.68157 3.4565 7.77275 3.36648 7.88452 3.36719C9.06116 3.37472 10.0555 3.76864 10.8508 4.54377C11.6489 5.32418 12.0518 6.38529 12.0618 7.71953Z" fill="white"/>
<path d="M9.02614 9.50265C8.87487 9.69234 8.58914 9.66833 8.58914 9.66833C6.5098 9.13769 5.95274 7.03193 5.95274 7.03193C5.95274 7.03193 5.92873 6.7486 6.11842 6.59493L6.49299 6.29719C6.68027 6.15313 6.79793 5.80497 6.60824 5.46402C6.50259 5.27433 6.2913 4.93578 6.13523 4.72208C5.96955 4.49638 5.58538 4.03537 5.58298 4.03296C5.39809 3.81206 5.12437 3.76164 4.83624 3.91051C4.83624 3.91051 4.83383 3.91291 4.83143 3.91291C4.55771 4.06658 4.30319 4.27307 4.06548 4.53479L4.06068 4.53959C3.883 4.75329 3.77976 4.96459 3.75574 5.17108C3.75094 5.19509 3.74854 5.22631 3.75094 5.26232C3.74854 5.35357 3.76295 5.44241 3.79176 5.53125L3.80136 5.53845C3.89021 5.85779 4.11591 6.38844 4.60333 7.27444C4.92027 7.8483 5.24442 8.32852 5.56617 8.7319C5.73424 8.9456 5.92633 9.1641 6.14723 9.3874L6.23367 9.47384C6.45697 9.69474 6.67547 9.88683 6.88917 10.0549C7.29255 10.3766 7.77037 10.7008 8.34663 11.0177C9.23264 11.5052 9.76328 11.7309 10.0826 11.8197L10.0898 11.8293C10.1787 11.8581 10.2675 11.8701 10.3587 11.8701C10.3948 11.8725 10.426 11.8701 10.45 11.8653C10.6565 11.8413 10.8678 11.7381 11.0815 11.5604L11.0863 11.5556C11.348 11.3179 11.5545 11.061 11.7082 10.7896C11.7082 10.7896 11.7106 10.7872 11.7106 10.7848C11.8594 10.4967 11.809 10.223 11.5881 10.0381C11.5881 10.0381 11.1247 9.65152 10.899 9.48584C10.6877 9.32977 10.3467 9.12088 10.1571 9.01283C9.8161 8.82314 9.46794 8.9408 9.32388 9.12808L9.02614 9.50265Z" fill="white"/>
</svg>
