<svg width="373" height="57" viewBox="0 0 373 57" fill="none" xmlns="http://www.w3.org/2000/svg">
<path d="M7.15625 56V11.5625H0.625V1H24.6875V11.5625H18.1562V56H7.15625ZM40.875 56.5C36.4792 56.5 33.1146 55.1771 30.7812 52.5312C28.4688 49.8646 27.3125 46.0208 27.3125 41V14.875C27.3125 10.1667 28.4583 6.59375 30.75 4.15625C33.0625 1.71875 36.4375 0.5 40.875 0.5C45.3125 0.5 48.6771 1.71875 50.9688 4.15625C53.2812 6.59375 54.4375 10.1667 54.4375 14.875V41C54.4375 46.0208 53.2708 49.8646 50.9375 52.5312C48.625 55.1771 45.2708 56.5 40.875 56.5ZM40.9688 46.375C42.6354 46.375 43.4688 44.7604 43.4688 41.5312V14.6875C43.4688 11.9792 42.6562 10.625 41.0312 10.625C39.1979 10.625 38.2812 12.0104 38.2812 14.7812V41.5938C38.2812 43.3021 38.4896 44.5312 38.9062 45.2812C39.3229 46.0104 40.0104 46.375 40.9688 46.375ZM58.875 56V1H75.625L80.25 34.5312L84.8438 1H101.75V56H91.6875V16.375L85.375 56H75.5L68.8125 16.375V56H58.875ZM106.625 56V1H128.625V11.625H117.812V22.3438H128.188V32.6875H117.812V45.2812H129.344V56H106.625ZM133 56V1H143.875V23.0312L149 1H160.062L153.906 26.1875L161.344 56H149.938L143.938 29.375V56H133ZM176.312 56.5C171.292 56.5 167.667 55.25 165.438 52.75C163.229 50.25 162.125 46.2708 162.125 40.8125V35.4375H173V42.3125C173 43.5833 173.188 44.5833 173.562 45.3125C173.958 46.0208 174.635 46.375 175.594 46.375C176.594 46.375 177.281 46.0833 177.656 45.5C178.052 44.9167 178.25 43.9583 178.25 42.625C178.25 40.9375 178.083 39.5312 177.75 38.4062C177.417 37.2604 176.833 36.1771 176 35.1562C175.188 34.1146 174.052 32.9062 172.594 31.5312L167.656 26.8438C163.969 23.3646 162.125 19.3854 162.125 14.9062C162.125 10.2188 163.208 6.64583 165.375 4.1875C167.562 1.72917 170.719 0.5 174.844 0.5C179.885 0.5 183.458 1.84375 185.562 4.53125C187.688 7.21875 188.75 11.3021 188.75 16.7812H177.562V13C177.562 12.25 177.344 11.6667 176.906 11.25C176.49 10.8333 175.917 10.625 175.188 10.625C174.312 10.625 173.667 10.875 173.25 11.375C172.854 11.8542 172.656 12.4792 172.656 13.25C172.656 14.0208 172.865 14.8542 173.281 15.75C173.698 16.6458 174.521 17.6771 175.75 18.8438L182.094 24.9375C183.365 26.1458 184.531 27.4271 185.594 28.7812C186.656 30.1146 187.51 31.6771 188.156 33.4688C188.802 35.2396 189.125 37.4062 189.125 39.9688C189.125 45.1354 188.167 49.1875 186.25 52.125C184.354 55.0417 181.042 56.5 176.312 56.5ZM220.938 56.5C216.542 56.5 213.177 55.1771 210.844 52.5312C208.531 49.8646 207.375 46.0208 207.375 41V14.875C207.375 10.1667 208.521 6.59375 210.812 4.15625C213.125 1.71875 216.5 0.5 220.938 0.5C225.375 0.5 228.74 1.71875 231.031 4.15625C233.344 6.59375 234.5 10.1667 234.5 14.875V41C234.5 46.0208 233.333 49.8646 231 52.5312C228.688 55.1771 225.333 56.5 220.938 56.5ZM221.031 46.375C222.698 46.375 223.531 44.7604 223.531 41.5312V14.6875C223.531 11.9792 222.719 10.625 221.094 10.625C219.26 10.625 218.344 12.0104 218.344 14.7812V41.5938C218.344 43.3021 218.552 44.5312 218.969 45.2812C219.385 46.0104 220.073 46.375 221.031 46.375ZM252.062 56.5C247.667 56.5 244.302 55.1771 241.969 52.5312C239.656 49.8646 238.5 46.0208 238.5 41V14.875C238.5 10.1667 239.646 6.59375 241.938 4.15625C244.25 1.71875 247.625 0.5 252.062 0.5C256.5 0.5 259.865 1.71875 262.156 4.15625C264.469 6.59375 265.625 10.1667 265.625 14.875V41C265.625 46.0208 264.458 49.8646 262.125 52.5312C259.812 55.1771 256.458 56.5 252.062 56.5ZM252.156 46.375C253.823 46.375 254.656 44.7604 254.656 41.5312V14.6875C254.656 11.9792 253.844 10.625 252.219 10.625C250.385 10.625 249.469 12.0104 249.469 14.7812V41.5938C249.469 43.3021 249.677 44.5312 250.094 45.2812C250.51 46.0104 251.198 46.375 252.156 46.375ZM283.188 56.5C278.792 56.5 275.427 55.1771 273.094 52.5312C270.781 49.8646 269.625 46.0208 269.625 41V14.875C269.625 10.1667 270.771 6.59375 273.062 4.15625C275.375 1.71875 278.75 0.5 283.188 0.5C287.625 0.5 290.99 1.71875 293.281 4.15625C295.594 6.59375 296.75 10.1667 296.75 14.875V41C296.75 46.0208 295.583 49.8646 293.25 52.5312C290.938 55.1771 287.583 56.5 283.188 56.5ZM283.281 46.375C284.948 46.375 285.781 44.7604 285.781 41.5312V14.6875C285.781 11.9792 284.969 10.625 283.344 10.625C281.51 10.625 280.594 12.0104 280.594 14.7812V41.5938C280.594 43.3021 280.802 44.5312 281.219 45.2812C281.635 46.0104 282.323 46.375 283.281 46.375ZM329.25 56.5C324.229 56.5 320.604 55.25 318.375 52.75C316.167 50.25 315.062 46.2708 315.062 40.8125V35.4375H325.938V42.3125C325.938 43.5833 326.125 44.5833 326.5 45.3125C326.896 46.0208 327.573 46.375 328.531 46.375C329.531 46.375 330.219 46.0833 330.594 45.5C330.99 44.9167 331.188 43.9583 331.188 42.625C331.188 40.9375 331.021 39.5312 330.688 38.4062C330.354 37.2604 329.771 36.1771 328.938 35.1562C328.125 34.1146 326.99 32.9062 325.531 31.5312L320.594 26.8438C316.906 23.3646 315.062 19.3854 315.062 14.9062C315.062 10.2188 316.146 6.64583 318.312 4.1875C320.5 1.72917 323.656 0.5 327.781 0.5C332.823 0.5 336.396 1.84375 338.5 4.53125C340.625 7.21875 341.688 11.3021 341.688 16.7812H330.5V13C330.5 12.25 330.281 11.6667 329.844 11.25C329.427 10.8333 328.854 10.625 328.125 10.625C327.25 10.625 326.604 10.875 326.188 11.375C325.792 11.8542 325.594 12.4792 325.594 13.25C325.594 14.0208 325.802 14.8542 326.219 15.75C326.635 16.6458 327.458 17.6771 328.688 18.8438L335.031 24.9375C336.302 26.1458 337.469 27.4271 338.531 28.7812C339.594 30.1146 340.448 31.6771 341.094 33.4688C341.74 35.2396 342.062 37.4062 342.062 39.9688C342.062 45.1354 341.104 49.1875 339.188 52.125C337.292 55.0417 333.979 56.5 329.25 56.5ZM345.75 56V1H360.281C363.323 1 365.729 1.67708 367.5 3.03125C369.292 4.38542 370.573 6.3125 371.344 8.8125C372.115 11.3125 372.5 14.2917 372.5 17.75C372.5 21.0833 372.177 23.9896 371.531 26.4688C370.885 28.9271 369.729 30.8333 368.062 32.1875C366.417 33.5417 364.073 34.2188 361.031 34.2188H356.562V56H345.75ZM356.562 24.3438H357.188C359.229 24.3438 360.479 23.7708 360.938 22.625C361.396 21.4792 361.625 19.7917 361.625 17.5625C361.625 15.4792 361.396 13.875 360.938 12.75C360.5 11.6042 359.448 11.0312 357.781 11.0312H356.562V24.3438Z" fill="white"/>
</svg>
