<svg width="117" height="19" viewBox="0 0 117 19" fill="none" xmlns="http://www.w3.org/2000/svg">
<path d="M2.23633 18V4.11328H0.195312V0.8125H7.71484V4.11328H5.67383V18H2.23633ZM12.7734 18.1562C11.3997 18.1562 10.3483 17.7428 9.61914 16.916C8.89648 16.0827 8.53516 14.8815 8.53516 13.3125V5.14844C8.53516 3.67708 8.89323 2.56055 9.60938 1.79883C10.332 1.03711 11.3867 0.65625 12.7734 0.65625C14.1602 0.65625 15.2116 1.03711 15.9277 1.79883C16.6504 2.56055 17.0117 3.67708 17.0117 5.14844V13.3125C17.0117 14.8815 16.6471 16.0827 15.918 16.916C15.1953 17.7428 14.1471 18.1562 12.7734 18.1562ZM12.8027 14.9922C13.3236 14.9922 13.584 14.4876 13.584 13.4785V5.08984C13.584 4.24349 13.3301 3.82031 12.8223 3.82031C12.2493 3.82031 11.9629 4.25326 11.9629 5.11914V13.498C11.9629 14.0319 12.028 14.416 12.1582 14.6504C12.2884 14.8783 12.5033 14.9922 12.8027 14.9922ZM18.3984 18V0.8125H23.6328L25.0781 11.291L26.5137 0.8125H31.7969V18H28.6523V5.61719L26.6797 18H23.5938L21.5039 5.61719V18H18.3984ZM33.3203 18V0.8125H40.1953V4.13281H36.8164V7.48242H40.0586V10.7148H36.8164V14.6504H40.4199V18H33.3203ZM41.5625 18V0.8125H44.9609V7.69727L46.5625 0.8125H50.0195L48.0957 8.68359L50.4199 18H46.8555L44.9805 9.67969V18H41.5625ZM55.0977 18.1562C53.5286 18.1562 52.3958 17.7656 51.6992 16.9844C51.0091 16.2031 50.6641 14.9596 50.6641 13.2539V11.5742H54.0625V13.7227C54.0625 14.1198 54.1211 14.4323 54.2383 14.6602C54.362 14.8815 54.5736 14.9922 54.873 14.9922C55.1855 14.9922 55.4004 14.901 55.5176 14.7188C55.6413 14.5365 55.7031 14.237 55.7031 13.8203C55.7031 13.293 55.651 12.8535 55.5469 12.502C55.4427 12.1439 55.2604 11.8053 55 11.4863C54.7461 11.1608 54.3913 10.7832 53.9355 10.3535L52.3926 8.88867C51.2402 7.80143 50.6641 6.55794 50.6641 5.1582C50.6641 3.69336 51.0026 2.57682 51.6797 1.80859C52.3633 1.04036 53.3496 0.65625 54.6387 0.65625C56.2142 0.65625 57.3307 1.07617 57.9883 1.91602C58.6523 2.75586 58.9844 4.0319 58.9844 5.74414H55.4883V4.5625C55.4883 4.32812 55.4199 4.14583 55.2832 4.01562C55.153 3.88542 54.974 3.82031 54.7461 3.82031C54.4727 3.82031 54.2708 3.89844 54.1406 4.05469C54.0169 4.20443 53.9551 4.39974 53.9551 4.64062C53.9551 4.88151 54.0202 5.14193 54.1504 5.42188C54.2806 5.70182 54.5378 6.02409 54.9219 6.38867L56.9043 8.29297C57.3014 8.67057 57.666 9.07096 57.998 9.49414C58.3301 9.91081 58.597 10.3991 58.7988 10.959C59.0007 11.5124 59.1016 12.1895 59.1016 12.9902C59.1016 14.6048 58.8021 15.8711 58.2031 16.7891C57.6107 17.7005 56.5755 18.1562 55.0977 18.1562ZM69.043 18.1562C67.6693 18.1562 66.6178 17.7428 65.8887 16.916C65.166 16.0827 64.8047 14.8815 64.8047 13.3125V5.14844C64.8047 3.67708 65.1628 2.56055 65.8789 1.79883C66.6016 1.03711 67.6562 0.65625 69.043 0.65625C70.4297 0.65625 71.4811 1.03711 72.1973 1.79883C72.9199 2.56055 73.2812 3.67708 73.2812 5.14844V13.3125C73.2812 14.8815 72.9167 16.0827 72.1875 16.916C71.4648 17.7428 70.4167 18.1562 69.043 18.1562ZM69.0723 14.9922C69.5931 14.9922 69.8535 14.4876 69.8535 13.4785V5.08984C69.8535 4.24349 69.5996 3.82031 69.0918 3.82031C68.5189 3.82031 68.2324 4.25326 68.2324 5.11914V13.498C68.2324 14.0319 68.2975 14.416 68.4277 14.6504C68.5579 14.8783 68.7728 14.9922 69.0723 14.9922ZM78.7695 18.1562C77.3958 18.1562 76.3444 17.7428 75.6152 16.916C74.8926 16.0827 74.5312 14.8815 74.5312 13.3125V5.14844C74.5312 3.67708 74.8893 2.56055 75.6055 1.79883C76.3281 1.03711 77.3828 0.65625 78.7695 0.65625C80.1562 0.65625 81.2077 1.03711 81.9238 1.79883C82.6465 2.56055 83.0078 3.67708 83.0078 5.14844V13.3125C83.0078 14.8815 82.6432 16.0827 81.9141 16.916C81.1914 17.7428 80.1432 18.1562 78.7695 18.1562ZM78.7988 14.9922C79.3197 14.9922 79.5801 14.4876 79.5801 13.4785V5.08984C79.5801 4.24349 79.3262 3.82031 78.8184 3.82031C78.2454 3.82031 77.959 4.25326 77.959 5.11914V13.498C77.959 14.0319 78.0241 14.416 78.1543 14.6504C78.2845 14.8783 78.4993 14.9922 78.7988 14.9922ZM88.4961 18.1562C87.1224 18.1562 86.071 17.7428 85.3418 16.916C84.6191 16.0827 84.2578 14.8815 84.2578 13.3125V5.14844C84.2578 3.67708 84.6159 2.56055 85.332 1.79883C86.0547 1.03711 87.1094 0.65625 88.4961 0.65625C89.8828 0.65625 90.9342 1.03711 91.6504 1.79883C92.373 2.56055 92.7344 3.67708 92.7344 5.14844V13.3125C92.7344 14.8815 92.3698 16.0827 91.6406 16.916C90.918 17.7428 89.8698 18.1562 88.4961 18.1562ZM88.5254 14.9922C89.0462 14.9922 89.3066 14.4876 89.3066 13.4785V5.08984C89.3066 4.24349 89.0527 3.82031 88.5449 3.82031C87.972 3.82031 87.6855 4.25326 87.6855 5.11914V13.498C87.6855 14.0319 87.7507 14.416 87.8809 14.6504C88.0111 14.8783 88.2259 14.9922 88.5254 14.9922ZM102.891 18.1562C101.322 18.1562 100.189 17.7656 99.4922 16.9844C98.8021 16.2031 98.457 14.9596 98.457 13.2539V11.5742H101.855V13.7227C101.855 14.1198 101.914 14.4323 102.031 14.6602C102.155 14.8815 102.367 14.9922 102.666 14.9922C102.979 14.9922 103.193 14.901 103.311 14.7188C103.434 14.5365 103.496 14.237 103.496 13.8203C103.496 13.293 103.444 12.8535 103.34 12.502C103.236 12.1439 103.053 11.8053 102.793 11.4863C102.539 11.1608 102.184 10.7832 101.729 10.3535L100.186 8.88867C99.0332 7.80143 98.457 6.55794 98.457 5.1582C98.457 3.69336 98.7956 2.57682 99.4727 1.80859C100.156 1.04036 101.143 0.65625 102.432 0.65625C104.007 0.65625 105.124 1.07617 105.781 1.91602C106.445 2.75586 106.777 4.0319 106.777 5.74414H103.281V4.5625C103.281 4.32812 103.213 4.14583 103.076 4.01562C102.946 3.88542 102.767 3.82031 102.539 3.82031C102.266 3.82031 102.064 3.89844 101.934 4.05469C101.81 4.20443 101.748 4.39974 101.748 4.64062C101.748 4.88151 101.813 5.14193 101.943 5.42188C102.074 5.70182 102.331 6.02409 102.715 6.38867L104.697 8.29297C105.094 8.67057 105.459 9.07096 105.791 9.49414C106.123 9.91081 106.39 10.3991 106.592 10.959C106.794 11.5124 106.895 12.1895 106.895 12.9902C106.895 14.6048 106.595 15.8711 105.996 16.7891C105.404 17.7005 104.368 18.1562 102.891 18.1562ZM108.047 18V0.8125H112.588C113.538 0.8125 114.29 1.02409 114.844 1.44727C115.404 1.87044 115.804 2.47266 116.045 3.25391C116.286 4.03516 116.406 4.96615 116.406 6.04688C116.406 7.08854 116.305 7.99674 116.104 8.77148C115.902 9.53971 115.54 10.1354 115.02 10.5586C114.505 10.9818 113.773 11.1934 112.822 11.1934H111.426V18H108.047ZM111.426 8.10742H111.621C112.259 8.10742 112.65 7.92839 112.793 7.57031C112.936 7.21224 113.008 6.6849 113.008 5.98828C113.008 5.33724 112.936 4.83594 112.793 4.48438C112.656 4.1263 112.327 3.94727 111.807 3.94727H111.426V8.10742Z" fill="white"/>
</svg>
