{
	"asset":{
		"generator":"Khronos glTF Blender I/O v3.6.27",
		"version":"2.0"
	},
	"scene":0,
	"scenes":[
		{
			"name":"Scene",
			"nodes":[
				0
			]
		}
	],
	"nodes":[
		{
			"mesh":0,
			"name":"Circle",
			"rotation":[
				-1,
				0,
				0,
				6.397578431460715e-07
			],
			"scale":[
				1.2423311471939087,
				1.2423254251480103,
				1.2423254251480103
			],
			"translation":[
				0,
				-2.8070363998413086,
				0
			]
		}
	],
	"materials":[
		{
			"doubleSided":true,
			"name":"Material.001",
			"pbrMetallicRoughness":{
				"metallicFactor":0,
				"roughnessFactor":0
			}
		},
		{
			"doubleSided":true,
			"name":"Material.003",
			"pbrMetallicRoughness":{
				"metallicFactor":0,
				"roughnessFactor":0.5
			}
		}
	],
	"meshes":[
		{
			"name":"Circle",
			"primitives":[
				{
					"attributes":{
						"POSITION":0,
						"NORMAL":1,
						"TEXCOORD_0":2
					},
					"indices":3,
					"material":0
				},
				{
					"attributes":{
						"POSITION":4,
						"NORMAL":5,
						"TEXCOORD_0":6
					},
					"indices":7,
					"material":1
				}
			]
		}
	],
	"accessors":[
		{
			"bufferView":0,
			"componentType":5126,
			"count":13476,
			"max":[
				0.8665397763252258,
				-0.8535637259483337,
				0.8655645847320557
			],
			"min":[
				-0.7907297015190125,
				-3.8344573974609375,
				-0.8662997484207153
			],
			"type":"VEC3"
		},
		{
			"bufferView":1,
			"componentType":5126,
			"count":13476,
			"type":"VEC3"
		},
		{
			"bufferView":2,
			"componentType":5126,
			"count":13476,
			"type":"VEC2"
		},
		{
			"bufferView":3,
			"componentType":5123,
			"count":24336,
			"type":"SCALAR"
		},
		{
			"bufferView":4,
			"componentType":5126,
			"count":512,
			"max":[
				1.1773529052734375,
				-0.8535634279251099,
				1.1175615787506104
			],
			"min":[
				-1.1533623933792114,
				-3.3263888359069824,
				-1.1175591945648193
			],
			"type":"VEC3"
		},
		{
			"bufferView":5,
			"componentType":5126,
			"count":512,
			"type":"VEC3"
		},
		{
			"bufferView":6,
			"componentType":5126,
			"count":512,
			"type":"VEC2"
		},
		{
			"bufferView":7,
			"componentType":5123,
			"count":2880,
			"type":"SCALAR"
		}
	],
	"bufferViews":[
		{
			"buffer":0,
			"byteLength":161712,
			"byteOffset":0,
			"target":34962
		},
		{
			"buffer":0,
			"byteLength":161712,
			"byteOffset":161712,
			"target":34962
		},
		{
			"buffer":0,
			"byteLength":107808,
			"byteOffset":323424,
			"target":34962
		},
		{
			"buffer":0,
			"byteLength":48672,
			"byteOffset":431232,
			"target":34963
		},
		{
			"buffer":0,
			"byteLength":6144,
			"byteOffset":479904,
			"target":34962
		},
		{
			"buffer":0,
			"byteLength":6144,
			"byteOffset":486048,
			"target":34962
		},
		{
			"buffer":0,
			"byteLength":4096,
			"byteOffset":492192,
			"target":34962
		},
		{
			"buffer":0,
			"byteLength":5760,
			"byteOffset":496288,
			"target":34963
		}
	],
	"buffers":[
		{
			"byteLength":502048,
			"uri":"jar-lay%20%283%29.bin"
		}
	]
}
